<svg><symbol id="work" viewBox="0 -0.5 16 16"><path stroke="#17162b" d="M1 1h3M1 2h1m2 0h1M0 3h1m3 0h12M0 4h1m14 0h1M0 5h1m2 0h11m1 0h1M0 6h1m2 0h1m9 0h1m1 0h1M0 7h1m2 0h1m9 0h1m1 0h1M0 8h1m2 0h1m9 0h1m1 0h1M0 9h1m2 0h1m9 0h1m1 0h1M0 10h1m2 0h1m9 0h1m1 0h1M0 11h1m2 0h1m9 0h1m1 0h1M0 12h1m2 0h11m1 0h1M0 13h1m14 0h1M1 14h14"></path><path stroke="#c1edc7" d="M2 2h2M1 3h3M1 4h14M1 5h2m11 0h1M2 6h1M1 7h1m12 0h1M2 8h1M1 9h1m12 0h1M2 10h1"></path><path stroke="#9ddacb" d="M1 6h1m12 0h1M2 7h1M1 8h1m12 0h1M2 9h1m-2 1h1m12 0h1M1 11h2m11 0h1M1 12h2m11 0h1M1 13h14"></path><path stroke="#cb96cc" d="M4 6h9"></path><path stroke="#eee7ee" d="M4 7h9M4 8h1m4 0h1m2 0h1M4 9h6m2 0h1m-9 1h1m4 0h1m2 0h1m-9 1h9"></path><path stroke="#4f4d7e" d="M5 8h4m-4 2h4"></path><path stroke="#52a2a7" d="M10 8h2m-2 1h2m-2 1h2"></path></symbol><symbol id="services" viewBox="0 -0.5 16 16"><path stroke="#17162b" d="M0 1h16M0 2h1m14 0h1M0 3h16M0 4h1m14 0h1M0 5h1m14 0h1M0 6h1m14 0h1M0 7h1m14 0h1M0 8h1m14 0h1M0 9h1m14 0h1M0 10h1m14 0h1M0 11h1m14 0h1M0 12h1m14 0h1M0 13h1m14 0h1M0 14h16"></path><path stroke="#878894" d="M1 2h12"></path><path stroke="#5f4c65" d="M13 2h2"></path><path stroke="#fff" d="M1 4h14M1 5h3m1 0h3m6 0h1M1 6h2m3 0h9M1 7h1m1 0h1m1 0h1m1 0h1m5 0h2M1 8h2m2 0h10M1 9h3m2 0h2m6 0h1M1 10h1m1 0h1m1 0h1m1 0h8M1 11h2m3 0h2m4 0h3M1 12h3m1 0h10M1 13h14"></path><path stroke="#18656e" d="M4 5h1M3 6h3M2 7h1m1 0h1m1 0h1M3 8h2M4 9h2m-4 1h1m1 0h1m1 0h1m-4 1h3m-2 1h1"></path><path stroke="#cb96cc" d="M8 5h6M8 7h5M8 9h6m-6 2h4"></path></symbol><symbol id="minimize"><path d="M0 18h21v3H0z"></path></symbol><symbol id="maximize"><path d="M0 0h3v3H0zM3 0h3v3H3zM6 0h3v3H6zM9 0h3v3H9zM12 0h3v3h-3zM15 0h3v3h-3zM18 0h3v3h-3zM0 3h3v3H0zM3 3h3v3H3zM6 3h3v3H6zM9 3h3v3H9zM12 3h3v3h-3zM15 3h3v3h-3zM18 3h3v3h-3zM0 6h3v3H0zM18 6h3v3h-3zM0 9h3v3H0zM18 9h3v3h-3zM0 12h3v3H0zM18 12h3v3h-3zM0 15h3v3H0zM18 15h3v3h-3zM0 18h3v3H0zM3 18h3v3H3zM6 18h3v3H6zM9 18h3v3H9zM12 18h3v3h-3zM15 18h3v3h-3zM18 18h3v3h-3z"></path></symbol><symbol id="home"><path fill="#17162B" d="M6 0h3v3H6zM9 0h3v3H9zM12 0h3v3h-3zM15 0h3v3h-3zM18 0h3v3h-3zM21 0h3v3h-3zM24 0h3v3h-3zM27 0h3v3h-3zM30 0h3v3h-3zM33 0h3v3h-3zM36 0h3v3h-3zM39 0h3v3h-3zM42 0h3v3h-3zM45 0h3v3h-3zM6 3h3v3H6z"></path><path fill="#18656E" d="M9 3h3v3H9zM12 3h3v3h-3zM15 3h3v3h-3zM18 3h3v3h-3zM21 3h3v3h-3zM24 3h3v3h-3zM27 3h3v3h-3zM30 3h3v3h-3zM33 3h3v3h-3zM36 3h3v3h-3zM39 3h3v3h-3zM42 3h3v3h-3z"></path><path fill="#17162B" d="M45 3h3v3h-3z"></path><path fill="#C1EDC7" d="M3 6h3v3H3z"></path><path fill="#17162B" d="M6 6h3v3H6z"></path><path fill="#18656E" d="M9 6h3v3H9zM12 6h3v3h-3z"></path><path fill="#C1EDC7" d="M15 6h3v3h-3z"></path><path fill="#18656E" d="M18 6h3v3h-3zM21 6h3v3h-3zM24 6h3v3h-3zM27 6h3v3h-3zM30 6h3v3h-3zM33 6h3v3h-3zM36 6h3v3h-3zM39 6h3v3h-3zM42 6h3v3h-3z"></path><path fill="#17162B" d="M45 6h3v3h-3zM6 9h3v3H6z"></path><path fill="#18656E" d="M9 9h3v3H9z"></path><path fill="#C1EDC7" d="M12 9h3v3h-3z"></path><path fill="#18656E" d="M15 9h3v3h-3z"></path><path fill="#C1EDC7" d="M18 9h3v3h-3z"></path><path fill="#18656E" d="M21 9h3v3h-3z"></path><path fill="#52A2A7" d="M24 9h3v3h-3z"></path><path fill="#18656E" d="M27 9h3v3h-3z"></path><path fill="#52A2A7" d="M30 9h3v3h-3z"></path><path fill="#18656E" d="M33 9h3v3h-3z"></path><path fill="#52A2A7" d="M36 9h3v3h-3z"></path><path fill="#18656E" d="M39 9h3v3h-3z"></path><path fill="#52A2A7" d="M42 9h3v3h-3z"></path><path fill="#17162B" d="M45 9h3v3h-3z"></path><path fill="#C1EDC7" d="M0 12h3v3H0z"></path><path fill="#17162B" d="M6 12h3v3H6z"></path><path fill="#52A2A7" d="M9 12h3v3H9z"></path><path fill="#18656E" d="M12 12h3v3h-3z"></path><path fill="#C1EDC7" d="M15 12h3v3h-3z"></path><path fill="#18656E" d="M18 12h3v3h-3z"></path><path fill="#52A2A7" d="M21 12h3v3h-3z"></path><path fill="#18656E" d="M24 12h3v3h-3z"></path><path fill="#52A2A7" d="M27 12h3v3h-3z"></path><path fill="#18656E" d="M30 12h3v3h-3z"></path><path fill="#52A2A7" d="M33 12h3v3h-3z"></path><path fill="#18656E" d="M36 12h3v3h-3z"></path><path fill="#52A2A7" d="M39 12h3v3h-3z"></path><path fill="#18656E" d="M42 12h3v3h-3z"></path><path fill="#17162B" d="M45 12h3v3h-3zM6 15h3v3H6z"></path><path fill="#52A2A7" d="M9 15h3v3H9zM12 15h3v3h-3zM15 15h3v3h-3zM18 15h3v3h-3zM21 15h3v3h-3zM24 15h3v3h-3zM27 15h3v3h-3zM30 15h3v3h-3zM33 15h3v3h-3zM36 15h3v3h-3zM39 15h3v3h-3zM42 15h3v3h-3z"></path><path fill="#17162B" d="M45 15h3v3h-3zM6 18h3v3H6z"></path><path fill="#52A2A7" d="M9 18h3v3H9z"></path><path fill="#9DDACB" d="M12 18h3v3h-3z"></path><path fill="#52A2A7" d="M15 18h3v3h-3z"></path><path fill="#9DDACB" d="M18 18h3v3h-3z"></path><path fill="#52A2A7" d="M21 18h3v3h-3z"></path><path fill="#9DDACB" d="M24 18h3v3h-3z"></path><path fill="#52A2A7" d="M27 18h3v3h-3z"></path><path fill="#9DDACB" d="M30 18h3v3h-3z"></path><path fill="#52A2A7" d="M33 18h3v3h-3z"></path><path fill="#9DDACB" d="M36 18h3v3h-3z"></path><path fill="#52A2A7" d="M39 18h3v3h-3z"></path><path fill="#9DDACB" d="M42 18h3v3h-3z"></path><path fill="#17162B" d="M45 18h3v3h-3zM6 21h3v3H6z"></path><path fill="#9DDACB" d="M9 21h3v3H9zM12 21h3v3h-3zM15 21h3v3h-3zM18 21h3v3h-3zM21 21h3v3h-3zM24 21h3v3h-3zM27 21h3v3h-3zM30 21h3v3h-3zM33 21h3v3h-3zM36 21h3v3h-3zM39 21h3v3h-3zM42 21h3v3h-3z"></path><path fill="#17162B" d="M45 21h3v3h-3zM6 24h3v3H6zM9 24h3v3H9zM12 24h3v3h-3zM15 24h3v3h-3zM18 24h3v3h-3zM21 24h3v3h-3zM24 24h3v3h-3zM27 24h3v3h-3zM30 24h3v3h-3zM33 24h3v3h-3zM36 24h3v3h-3zM39 24h3v3h-3zM42 24h3v3h-3zM45 24h3v3h-3zM21 27h3v3h-3zM24 27h3v3h-3zM27 27h3v3h-3zM30 27h3v3h-3zM33 27h3v3h-3zM6 30h3v3H6zM9 30h3v3H9zM12 30h3v3h-3zM15 30h3v3h-3zM18 30h3v3h-3zM21 30h3v3h-3zM27 30h3v3h-3zM30 30h3v3h-3zM33 30h3v3h-3zM36 30h3v3h-3zM39 30h3v3h-3zM42 30h3v3h-3zM3 33h3v3H3z"></path><path fill="#2C2B4B" d="M6 33h3v3H6zM9 33h3v3H9zM12 33h3v3h-3zM15 33h3v3h-3zM18 33h3v3h-3z"></path><path fill="#17162B" d="M21 33h3v3h-3zM27 33h3v3h-3z"></path><path fill="#2C2B4B" d="M30 33h3v3h-3zM33 33h3v3h-3zM36 33h3v3h-3zM39 33h3v3h-3z"></path><path fill="#C1EDC7" d="M42 33h3v3h-3z"></path><path fill="#17162B" d="M45 33h3v3h-3zM0 36h3v3H0z"></path><path fill="#2C2B4B" d="M3 36h3v3H3z"></path><path fill="#4F4D7E" d="M6 36h3v3H6z"></path><path fill="#2C2B4B" d="M9 36h3v3H9z"></path><path fill="#4F4D7E" d="M12 36h3v3h-3z"></path><path fill="#2C2B4B" d="M15 36h3v3h-3z"></path><path fill="#17162B" d="M18 36h3v3h-3zM30 36h3v3h-3z"></path><path fill="#2C2B4B" d="M33 36h3v3h-3z"></path><path fill="#4F4D7E" d="M36 36h3v3h-3z"></path><path fill="#C1EDC7" d="M39 36h3v3h-3zM42 36h3v3h-3zM45 36h3v3h-3z"></path><path fill="#17162B" d="M0 39h3v3H0z"></path><path fill="#4F4D7E" d="M3 39h3v3H3z"></path><path fill="#8E67A9" d="M6 39h3v3H6z"></path><path fill="#4F4D7E" d="M9 39h3v3H9zM12 39h3v3h-3zM15 39h3v3h-3z"></path><path fill="#17162B" d="M18 39h3v3h-3zM21 39h3v3h-3zM27 39h3v3h-3z"></path><path fill="#2C2B4B" d="M30 39h3v3h-3z"></path><path fill="#4F4D7E" d="M33 39h3v3h-3z"></path><path fill="#8E67A9" d="M36 39h3v3h-3z"></path><path fill="#4F4D7E" d="M39 39h3v3h-3z"></path><path fill="#C1EDC7" d="M42 39h3v3h-3z"></path><path fill="#17162B" d="M45 39h3v3h-3zM0 42h3v3H0zM3 42h3v3H3zM6 42h3v3H6zM9 42h3v3H9zM12 42h3v3h-3z"></path><path fill="#8E67A9" d="M15 42h3v3h-3z"></path><path fill="#4F4D7E" d="M18 42h3v3h-3z"></path><path fill="#17162B" d="M21 42h3v3h-3zM24 42h3v3h-3zM27 42h3v3h-3z"></path><path fill="#4F4D7E" d="M30 42h3v3h-3z"></path><path fill="#8E67A9" d="M33 42h3v3h-3z"></path><path fill="#17162B" d="M36 42h3v3h-3zM39 42h3v3h-3zM42 42h3v3h-3zM45 42h3v3h-3zM15 45h3v3h-3zM18 45h3v3h-3zM30 45h3v3h-3zM33 45h3v3h-3z"></path></symbol><symbol id="close"><path d="M0 0h1v1H0zM13 0h1v1h-1zM0 1h1v1H0zM1 1h1v1H1zM12 1h1v1h-1zM13 1h1v1h-1zM1 2h1v1H1zM2 2h1v1H2zM11 2h1v1h-1zM12 2h1v1h-1zM2 3h1v1H2zM3 3h1v1H3zM10 3h1v1h-1zM11 3h1v1h-1zM3 4h1v1H3zM4 4h1v1H4zM9 4h1v1H9zM10 4h1v1h-1zM4 5h1v1H4zM5 5h1v1H5zM8 5h1v1H8zM9 5h1v1H9zM5 6h1v1H5zM6 6h1v1H6zM7 6h1v1H7zM8 6h1v1H8zM6 7h1v1H6zM7 7h1v1H7zM5 8h1v1H5zM6 8h1v1H6zM7 8h1v1H7zM8 8h1v1H8zM4 9h1v1H4zM5 9h1v1H5zM8 9h1v1H8zM9 9h1v1H9zM3 10h1v1H3zM4 10h1v1H4zM9 10h1v1H9zM10 10h1v1h-1zM2 11h1v1H2zM3 11h1v1H3zM10 11h1v1h-1zM11 11h1v1h-1zM1 12h1v1H1zM2 12h1v1H2zM11 12h1v1h-1zM12 12h1v1h-1zM0 13h1v1H0zM1 13h1v1H1zM12 13h1v1h-1zM13 13h1v1h-1z"></path></symbol><symbol id="close-2"><path d="M0 0h1v1H0zM1 0h1v1H1zM5 0h1v1H5zM6 0h1v1H6zM0 1h1v1H0zM1 1h1v1H1zM2 1h1v1H2zM4 1h1v1H4zM5 1h1v1H5zM6 1h1v1H6zM1 2h1v1H1zM2 2h1v1H2zM3 2h1v1H3zM4 2h1v1H4zM5 2h1v1H5zM2 3h1v1H2zM3 3h1v1H3zM4 3h1v1H4zM1 4h1v1H1zM2 4h1v1H2zM3 4h1v1H3zM4 4h1v1H4zM5 4h1v1H5zM0 5h1v1H0zM1 5h1v1H1zM2 5h1v1H2zM4 5h1v1H4zM5 5h1v1H5zM6 5h1v1H6zM0 6h1v1H0zM1 6h1v1H1zM5 6h1v1H5zM6 6h1v1H6z"></path></symbol><symbol id="blog" viewBox="0 -0.5 16 16"><path stroke="#17162b" d="M4 1h11M4 2h1m8 0h2M3 3h1m9 0h2M3 4h1m8 0h1m1 0h1M2 5h1m9 0h1m1 0h1M2 6h1m8 0h1m2 0h1M1 7h1m9 0h1m2 0h1M1 8h1m8 0h1m3 0h1M0 9h1m9 0h1m3 0h1M0 10h10m4 0h1M4 11h1m9 0h1M4 12h1m9 0h1M4 13h1m9 0h1M4 14h11"></path><path stroke="#5f4c65" d="M5 2h3m1 0h1M4 3h3m1 0h1m1 0h1M4 4h4m1 0h1M3 5h4m1 0h1M3 6h3m1 0h1m1 0h1M2 7h3m1 0h1m1 0h1M2 8h4m1 0h1M1 9h4m1 0h1"></path><path stroke="#82658b" d="M8 2h1m1 0h3M7 3h1m1 0h1m1 0h2M8 4h1m1 0h2M7 5h1m1 0h3M6 6h1m1 0h1m1 0h1M5 7h1m1 0h1m1 0h2M6 8h1m1 0h2M5 9h1m1 0h3"></path><path stroke="#bdb6c4" d="M13 4h1m-1 1h1m-1 1h1m-2 1h2m-3 2h1m1 0h1m-9 2h7m-7 1h1m-1 1h5m1 0h1"></path><path stroke="#4f4d7e" d="M12 6h1m-2 2h2m-3 2h3m-7 2h7"></path><path stroke="#f1fae9" d="M13 8h1m-2 1h1m0 1h1m-2 1h2m-1 1h1m-4 1h1m1 0h2"></path></symbol><symbol id="art" viewBox="0 -0.5 16 16"><path stroke="#17162b" d="M7 1h5M5 2h2m5 0h2M4 3h1m8 0h1M3 4h1m9 0h1M2 5h1m9 0h1M1 6h1m9 0h1M1 7h1m10 0h2M1 8h1m12 0h1M1 9h1m7 0h3m2 0h1M1 10h1m7 0h1m1 0h1m2 0h1M1 11h1m7 0h3m1 0h1M2 12h1m9 0h1M3 13h1m6 0h2m-8 1h6"></path><path stroke="#eee7ee" d="M7 2h5M5 3h3m2 0h3M4 4h2m5 0h2M3 5h2m5 0h2M2 6h2m4 0h3M2 7h1m4 0h5M2 8h1m4 0h7M2 9h1m4 0h2m3 0h2M2 10h1m5 0h1m3 0h2M2 11h3m3 0h1m3 0h1M3 12h2m2 0h5m-8 1h6"></path><path stroke="#4f4d7e" d="M8 3h2M7 4h4M8 5h2"></path><path stroke="#6c93ce" d="M6 4h1M5 5h3M5 6h3"></path><path stroke="#9ddacb" d="M4 6h1M3 7h4M3 8h2"></path><path stroke="#f7ffaa" d="M5 8h2M3 9h4m-4 1h3"></path><path stroke="#cb96cc" d="M6 10h2m-3 1h3m-3 1h2"></path></symbol><symbol id="about" viewBox="0 -0.5 16 16"><path stroke="#17162b" d="M5 1h5M4 2h1m5 0h3M3 3h1m2 0h2m5 0h1M2 4h1m2 0h1m2 0h1m4 0h1M2 5h1m2 0h1m2 0h1m5 0h1M1 6h1m2 0h2m2 0h3m3 0h1M1 7h1m1 0h2m6 0h1m2 0h1M1 8h1m1 0h1m1 0h1m4 0h1m1 0h1m1 0h1M1 9h1m1 0h1m8 0h2M1 10h1m1 0h1m8 0h2M1 11h1m2 0h1m6 0h1m1 0h1M1 12h1m3 0h1m4 0h1m3 0h1M1 13h1m4 0h4m4 0h1M2 14h1m10 0h2M3 15h11"></path><path stroke="#2c2b4b" d="M5 2h5M4 3h2m2 0h5M3 4h2m4 0h4M3 5h2m4 0h5M2 6h2m7 0h3M2 7h1m9 0h2M2 8h1m10 0h1M2 9h1m-1 1h1m-1 1h2m8 0h1M2 12h3m6 0h3M2 13h4m4 0h4M3 14h10"></path><path stroke="#bca295" d="M6 4h2M6 5h2M6 6h2M5 7h6M4 8h1m1 0h4m1 0h1M6 9h4m-4 1h4m-5 1h2m2 0h2m-5 1h4"></path><path stroke="#bc887f" d="M4 9h2m4 0h2m-8 1h2m4 0h2"></path><path stroke="#853680" d="M7 11h2"></path></symbol></svg>