<svg xmlns="http://www.w3.org/2000/svg" viewBox="0 -0.5 16 16" shape-rendering="crispEdges">
<metadata>Made with Pixels to Svg https://codepen.io/shshaw/pen/XbxvNj</metadata>
<path stroke="#17162b" d="M5 1h5M4 2h1M10 2h3M3 3h1M6 3h2M13 3h1M2 4h1M5 4h1M8 4h1M13 4h1M2 5h1M5 5h1M8 5h1M14 5h1M1 6h1M4 6h2M8 6h3M14 6h1M1 7h1M3 7h2M11 7h1M14 7h1M1 8h1M3 8h1M5 8h1M10 8h1M12 8h1M14 8h1M1 9h1M3 9h1M12 9h2M1 10h1M3 10h1M12 10h2M1 11h1M4 11h1M11 11h1M13 11h1M1 12h1M5 12h1M10 12h1M14 12h1M1 13h1M6 13h4M14 13h1M2 14h1M13 14h2M3 15h11" />
<path stroke="#2c2b4b" d="M5 2h5M4 3h2M8 3h5M3 4h2M9 4h4M3 5h2M9 5h5M2 6h2M11 6h3M2 7h1M12 7h2M2 8h1M13 8h1M2 9h1M2 10h1M2 11h2M12 11h1M2 12h3M11 12h3M2 13h4M10 13h4M3 14h10" />
<path stroke="#bca295" d="M6 4h2M6 5h2M6 6h2M5 7h6M4 8h1M6 8h4M11 8h1M6 9h4M6 10h4M5 11h2M9 11h2M6 12h4" />
<path stroke="#bc887f" d="M4 9h2M10 9h2M4 10h2M10 10h2" />
<path stroke="#853680" d="M7 11h2" />
</svg>