<svg xmlns="http://www.w3.org/2000/svg" viewBox="0 -0.5 16 16" shape-rendering="crispEdges">
<metadata>Made with Pixels to Svg https://codepen.io/shshaw/pen/XbxvNj</metadata>
<path stroke="#17162b" d="M7 1h5M5 2h2M12 2h2M4 3h1M13 3h1M3 4h1M13 4h1M2 5h1M12 5h1M1 6h1M11 6h1M1 7h1M12 7h2M1 8h1M14 8h1M1 9h1M9 9h3M14 9h1M1 10h1M9 10h1M11 10h1M14 10h1M1 11h1M9 11h3M13 11h1M2 12h1M12 12h1M3 13h1M10 13h2M4 14h6" />
<path stroke="#eee7ee" d="M7 2h5M5 3h3M10 3h3M4 4h2M11 4h2M3 5h2M10 5h2M2 6h2M8 6h3M2 7h1M7 7h5M2 8h1M7 8h7M2 9h1M7 9h2M12 9h2M2 10h1M8 10h1M12 10h2M2 11h3M8 11h1M12 11h1M3 12h2M7 12h5M4 13h6" />
<path stroke="#4f4d7e" d="M8 3h2M7 4h4M8 5h2" />
<path stroke="#6c93ce" d="M6 4h1M5 5h3M5 6h3" />
<path stroke="#9ddacb" d="M4 6h1M3 7h4M3 8h2" />
<path stroke="#f7ffaa" d="M5 8h2M3 9h4M3 10h3" />
<path stroke="#cb96cc" d="M6 10h2M5 11h3M5 12h2" />
</svg>