<svg xmlns="http://www.w3.org/2000/svg" viewBox="0 -0.5 16 16" shape-rendering="crispEdges">
<path stroke="#17162b" d="M4 1h11M4 2h1M13 2h2M3 3h1M13 3h2M3 4h1M12 4h1M14 4h1M2 5h1M12 5h1M14 5h1M2 6h1M11 6h1M14 6h1M1 7h1M11 7h1M14 7h1M1 8h1M10 8h1M14 8h1M0 9h1M10 9h1M14 9h1M0 10h10M14 10h1M4 11h1M14 11h1M4 12h1M14 12h1M4 13h1M14 13h1M4 14h11" />
<path stroke="#5f4c65" d="M5 2h3M9 2h1M4 3h3M8 3h1M10 3h1M4 4h4M9 4h1M3 5h4M8 5h1M3 6h3M7 6h1M9 6h1M2 7h3M6 7h1M8 7h1M2 8h4M7 8h1M1 9h4M6 9h1" />
<path stroke="#82658b" d="M8 2h1M10 2h3M7 3h1M9 3h1M11 3h2M8 4h1M10 4h2M7 5h1M9 5h3M6 6h1M8 6h1M10 6h1M5 7h1M7 7h1M9 7h2M6 8h1M8 8h2M5 9h1M7 9h3" />
<path stroke="#bdb6c4" d="M13 4h1M13 5h1M13 6h1M12 7h2M11 9h1M13 9h1M5 11h7M5 12h1M5 13h5M11 13h1" />
<path stroke="#4f4d7e" d="M12 6h1M11 8h2M10 10h3M6 12h7" />
<path stroke="#f1fae9" d="M13 8h1M12 9h1M13 10h1M12 11h2M13 12h1M10 13h1M12 13h2" />
</svg>