<svg xmlns="http://www.w3.org/2000/svg" viewBox="0 -0.5 48 48" shape-rendering="crispEdges">
<path stroke="#17162b" d="M6 0h42M6 1h42M6 2h42M6 3h3M45 3h3M6 4h3M45 4h3M6 5h3M45 5h3M6 6h3M45 6h3M6 7h3M45 7h3M6 8h3M45 8h3M6 9h3M45 9h3M6 10h3M45 10h3M6 11h3M45 11h3M6 12h3M45 12h3M6 13h3M45 13h3M6 14h3M45 14h3M6 15h3M45 15h3M6 16h3M45 16h3M6 17h3M45 17h3M6 18h3M45 18h3M6 19h3M45 19h3M6 20h3M45 20h3M6 21h3M45 21h3M6 22h3M45 22h3M6 23h3M45 23h3M6 24h42M6 25h42M6 26h42M21 27h15M21 28h15M21 29h15M6 30h18M27 30h18M6 31h18M27 31h18M6 32h18M27 32h18M3 33h3M21 33h3M27 33h3M45 33h3M3 34h3M21 34h3M27 34h3M45 34h3M3 35h3M21 35h3M27 35h3M45 35h3M0 36h3M18 36h3M30 36h3M0 37h3M18 37h3M30 37h3M0 38h3M18 38h3M30 38h3M0 39h3M18 39h6M27 39h3M45 39h3M0 40h3M18 40h6M27 40h3M45 40h3M0 41h3M18 41h6M27 41h3M45 41h3M0 42h15M21 42h9M36 42h12M0 43h15M21 43h9M36 43h12M0 44h15M21 44h9M36 44h12M15 45h6M30 45h6M15 46h6M30 46h6M15 47h6M30 47h6" />
<path stroke="#18656e" d="M9 3h36M9 4h36M9 5h36M9 6h6M18 6h27M9 7h6M18 7h27M9 8h6M18 8h27M9 9h3M15 9h3M21 9h3M27 9h3M33 9h3M39 9h3M9 10h3M15 10h3M21 10h3M27 10h3M33 10h3M39 10h3M9 11h3M15 11h3M21 11h3M27 11h3M33 11h3M39 11h3M12 12h3M18 12h3M24 12h3M30 12h3M36 12h3M42 12h3M12 13h3M18 13h3M24 13h3M30 13h3M36 13h3M42 13h3M12 14h3M18 14h3M24 14h3M30 14h3M36 14h3M42 14h3" />
<path stroke="#c1edc7" d="M3 6h3M15 6h3M3 7h3M15 7h3M3 8h3M15 8h3M12 9h3M18 9h3M12 10h3M18 10h3M12 11h3M18 11h3M0 12h3M15 12h3M0 13h3M15 13h3M0 14h3M15 14h3M42 33h3M42 34h3M42 35h3M39 36h9M39 37h9M39 38h9M42 39h3M42 40h3M42 41h3" />
<path stroke="#52a2a7" d="M24 9h3M30 9h3M36 9h3M42 9h3M24 10h3M30 10h3M36 10h3M42 10h3M24 11h3M30 11h3M36 11h3M42 11h3M9 12h3M21 12h3M27 12h3M33 12h3M39 12h3M9 13h3M21 13h3M27 13h3M33 13h3M39 13h3M9 14h3M21 14h3M27 14h3M33 14h3M39 14h3M9 15h36M9 16h36M9 17h36M9 18h3M15 18h3M21 18h3M27 18h3M33 18h3M39 18h3M9 19h3M15 19h3M21 19h3M27 19h3M33 19h3M39 19h3M9 20h3M15 20h3M21 20h3M27 20h3M33 20h3M39 20h3" />
<path stroke="#9ddacb" d="M12 18h3M18 18h3M24 18h3M30 18h3M36 18h3M42 18h3M12 19h3M18 19h3M24 19h3M30 19h3M36 19h3M42 19h3M12 20h3M18 20h3M24 20h3M30 20h3M36 20h3M42 20h3M9 21h36M9 22h36M9 23h36" />
<path stroke="#2c2b4b" d="M6 33h15M30 33h12M6 34h15M30 34h12M6 35h15M30 35h12M3 36h3M9 36h3M15 36h3M33 36h3M3 37h3M9 37h3M15 37h3M33 37h3M3 38h3M9 38h3M15 38h3M33 38h3M30 39h3M30 40h3M30 41h3" />
<path stroke="#4f4d7e" d="M6 36h3M12 36h3M36 36h3M6 37h3M12 37h3M36 37h3M6 38h3M12 38h3M36 38h3M3 39h3M9 39h9M33 39h3M39 39h3M3 40h3M9 40h9M33 40h3M39 40h3M3 41h3M9 41h9M33 41h3M39 41h3M18 42h3M30 42h3M18 43h3M30 43h3M18 44h3M30 44h3" />
<path stroke="#8e67a9" d="M6 39h3M36 39h3M6 40h3M36 40h3M6 41h3M36 41h3M15 42h3M33 42h3M15 43h3M33 43h3M15 44h3M33 44h3" />
</svg>