<?xml version="1.0" encoding="UTF-8" ?>
<svg version="1.1" width="21" height="21" xmlns="http://www.w3.org/2000/svg" shape-rendering="crispEdges">
<rect x="0" y="0" width="3" height="3" fill="#000000" />
<rect x="3" y="0" width="3" height="3" fill="#000000" />
<rect x="6" y="0" width="3" height="3" fill="#000000" />
<rect x="9" y="0" width="3" height="3" fill="#000000" />
<rect x="12" y="0" width="3" height="3" fill="#000000" />
<rect x="15" y="0" width="3" height="3" fill="#000000" />
<rect x="18" y="0" width="3" height="3" fill="#000000" />
<rect x="0" y="3" width="3" height="3" fill="#000000" />
<rect x="3" y="3" width="3" height="3" fill="#000000" />
<rect x="6" y="3" width="3" height="3" fill="#000000" />
<rect x="9" y="3" width="3" height="3" fill="#000000" />
<rect x="12" y="3" width="3" height="3" fill="#000000" />
<rect x="15" y="3" width="3" height="3" fill="#000000" />
<rect x="18" y="3" width="3" height="3" fill="#000000" />
<rect x="0" y="6" width="3" height="3" fill="#000000" />
<rect x="18" y="6" width="3" height="3" fill="#000000" />
<rect x="0" y="9" width="3" height="3" fill="#000000" />
<rect x="18" y="9" width="3" height="3" fill="#000000" />
<rect x="0" y="12" width="3" height="3" fill="#000000" />
<rect x="18" y="12" width="3" height="3" fill="#000000" />
<rect x="0" y="15" width="3" height="3" fill="#000000" />
<rect x="18" y="15" width="3" height="3" fill="#000000" />
<rect x="0" y="18" width="3" height="3" fill="#000000" />
<rect x="3" y="18" width="3" height="3" fill="#000000" />
<rect x="6" y="18" width="3" height="3" fill="#000000" />
<rect x="9" y="18" width="3" height="3" fill="#000000" />
<rect x="12" y="18" width="3" height="3" fill="#000000" />
<rect x="15" y="18" width="3" height="3" fill="#000000" />
<rect x="18" y="18" width="3" height="3" fill="#000000" />
</svg>