<svg xmlns="http://www.w3.org/2000/svg" viewBox="0 -0.5 16 16" shape-rendering="crispEdges">
<metadata>Made with Pixels to Svg https://codepen.io/shshaw/pen/XbxvNj</metadata>
<path stroke="#17162b" d="M0 1h16M0 2h1M15 2h1M0 3h16M0 4h1M15 4h1M0 5h1M15 5h1M0 6h1M15 6h1M0 7h1M15 7h1M0 8h1M15 8h1M0 9h1M15 9h1M0 10h1M15 10h1M0 11h1M15 11h1M0 12h1M15 12h1M0 13h1M15 13h1M0 14h16" />
<path stroke="#878894" d="M1 2h12" />
<path stroke="#5f4c65" d="M13 2h2" />
<path stroke="#ffffff" d="M1 4h14M1 5h3M5 5h3M14 5h1M1 6h2M6 6h9M1 7h1M3 7h1M5 7h1M7 7h1M13 7h2M1 8h2M5 8h10M1 9h3M6 9h2M14 9h1M1 10h1M3 10h1M5 10h1M7 10h8M1 11h2M6 11h2M12 11h3M1 12h3M5 12h10M1 13h14" />
<path stroke="#18656e" d="M4 5h1M3 6h3M2 7h1M4 7h1M6 7h1M3 8h2M4 9h2M2 10h1M4 10h1M6 10h1M3 11h3M4 12h1" />
<path stroke="#cb96cc" d="M8 5h6M8 7h5M8 9h6M8 11h4" />
</svg>