<svg xmlns="http://www.w3.org/2000/svg" viewBox="0 -0.5 12 35" shape-rendering="crispEdges">
<path stroke="currentColor" d="M1 0h1M5 0h1M9 0h1M0 2h1M2 2h1M4 2h1M6 2h1M8 2h1M10 2h1M1 4h1M3 4h1M5 4h1M7 4h1M9 4h1M11 4h1M0 6h1M2 6h1M4 6h1M6 6h1M8 6h1M10 6h1M1 7h1M5 7h1M9 7h1M0 8h1M2 8h1M4 8h1M6 8h1M8 8h1M10 8h1M3 9h1M7 9h1M11 9h1M0 10h1M2 10h1M4 10h1M6 10h1M8 10h1M10 10h1M1 11h1M5 11h1M9 11h1M0 12h1M2 12h1M4 12h1M6 12h1M8 12h1M10 12h1M3 13h1M7 13h1M11 13h1M0 14h1M2 14h1M4 14h1M6 14h1M8 14h1M10 14h1M1 15h1M3 15h1M5 15h1M7 15h1M9 15h1M11 15h1M0 16h1M2 16h1M4 16h1M6 16h1M8 16h1M10 16h1M1 17h1M3 17h1M5 17h1M7 17h1M9 17h1M11 17h1M0 18h1M2 18h1M4 18h1M6 18h1M8 18h1M10 18h1M1 19h1M3 19h1M5 19h1M7 19h1M9 19h1M11 19h1M0 20h1M2 20h1M4 20h1M6 20h1M8 20h1M10 20h1M1 21h1M3 21h1M5 21h1M7 21h1M9 21h1M11 21h1M0 22h1M2 22h3M6 22h3M10 22h2M1 23h1M3 23h1M5 23h1M7 23h1M9 23h1M11 23h1M0 24h3M4 24h3M8 24h3M1 25h1M3 25h1M5 25h1M7 25h1M9 25h1M11 25h1M0 26h1M2 26h3M6 26h3M10 26h2M1 27h1M3 27h1M5 27h1M7 27h1M9 27h1M11 27h1M0 28h12M0 29h1M2 29h1M4 29h1M6 29h1M8 29h1M10 29h1M0 30h12M1 31h1M3 31h1M5 31h1M7 31h1M9 31h1M11 31h1M0 32h12M0 33h1M2 33h1M4 33h1M6 33h1M8 33h1M10 33h1M0 34h12" />
</svg>