<svg xmlns="http://www.w3.org/2000/svg" viewBox="0 -0.5 16 16" shape-rendering="crispEdges">
<metadata>Made with Pixels to Svg https://codepen.io/shshaw/pen/XbxvNj</metadata>
<path stroke="#17162b" d="M1 1h3M1 2h1M4 2h1M0 3h1M4 3h12M0 4h1M15 4h1M0 5h1M3 5h11M15 5h1M0 6h1M3 6h1M13 6h1M15 6h1M0 7h1M3 7h1M13 7h1M15 7h1M0 8h1M3 8h1M13 8h1M15 8h1M0 9h1M3 9h1M13 9h1M15 9h1M0 10h1M3 10h1M13 10h1M15 10h1M0 11h1M3 11h1M13 11h1M15 11h1M0 12h1M3 12h11M15 12h1M0 13h1M15 13h1M1 14h14" />
<path stroke="#c1edc7" d="M2 2h2M1 3h3M1 4h14M1 5h2M14 5h1M2 6h1M1 7h1M14 7h1M2 8h1M1 9h1M14 9h1M2 10h1" />
<path stroke="#9ddacb" d="M1 6h1M14 6h1M2 7h1M1 8h1M14 8h1M2 9h1M1 10h1M14 10h1M1 11h2M14 11h1M1 12h2M14 12h1M1 13h14" />
<path stroke="#cb96cc" d="M4 6h9" />
<path stroke="#eee7ee" d="M4 7h9M4 8h1M9 8h1M12 8h1M4 9h6M12 9h1M4 10h1M9 10h1M12 10h1M4 11h9" />
<path stroke="#4f4d7e" d="M5 8h4M5 10h4" />
<path stroke="#52a2a7" d="M10 8h2M10 9h2M10 10h2" />
</svg>